<?xml version="1.0" encoding="UTF-8"?>
<svg id="Calque_1" xmlns="http://www.w3.org/2000/svg" version="1.1" viewBox="0 0 120 77.8">
  <!-- Generator: Adobe Illustrator 29.7.1, SVG Export Plug-In . SVG Version: 2.1.1 Build 8)  -->
  <path d="M54.6,35.4h0c-1.1-.9-2.2-1.5-3.3-1.8-.2,0-.4,0-.6-.1h0s-1.2-.2-2.3-.2-2.4.2-2.4.2c-.2,0-.4,0-.6.1-.8.2-1.7.6-2.5,1.1h0,0c-.3.2-.5.4-.8.6-1.1.9-2,2.2-2.8,3.8-.8,1.6-1.2,3.9-1.2,6.7s.4,5,1.2,6.6c.8,1.6,1.7,2.8,2.8,3.7,1,.8,2.2,1.4,3.3,1.6.2,0,.4,0,.6.1h0s1.3.2,2.4.2,2.3-.2,2.3-.2h0c.2,0,.4,0,.6-.1,1.1-.3,2.2-.8,3.3-1.6,1.1-.8,2-2.1,2.8-3.7.8-1.6,1.2-3.8,1.2-6.5s-.4-5.1-1.2-6.8c-.8-1.6-1.7-2.9-2.8-3.8ZM53.6,50.4h0c0,1.5-.3,2.8-.6,4-.2.9-.6,1.7-1,2.3,0,0,0,0,0,0,0,0,0,0,0,0-.3.4-1.3,1.2-3.5,1.2s-3.4-1-3.6-1.3c-.4-.6-.8-1.4-1-2.3-.3-1.2-.5-2.5-.6-4,0-1.4,0-2.9,0-4.4s0-3.1,0-4.6c0-1.5.3-2.9.6-4.1.3-1,.7-1.9,1.2-2.6.3-.4,1.3-1.2,3.5-1.2s3,.7,3.4,1.1c0,0,.1.2.2.3h0c.4.7.8,1.5,1,2.4.3,1.2.5,2.6.6,4.1,0,1.5,0,3,0,4.6s0,3,0,4.4Z" fill="#fff"/>
  <path d="M68.6,57.3h0c-.3,0-.9-.1-1.3-.9-.2-.4-.4-.9-.4-1.5,0-.5,0-1.1,0-1.7V20.3c0-.4,0-.6,0-.7-.3,0-.5.2-.9.3-.3,0-.8.2-2.2.6-1.1.3-2.2.8-3.4,1.3-.4.2-.5.3-.5.3,0,0,0,0,0,0,0,0,.2.1.5.3h.1c.2.2.4.4.6.5.2.2.4.4.5.5.2.3.3.5.3.9v26.8c0,1.1,0,2,0,2.9,0,.8-.2,1.4-.4,2-.3,1-.9,1.3-1.3,1.3s-.2,0-.3,0c0,0-.1.1-.1.2s0,.1,0,.2c0,0,.2,0,.3,0h8.5c.2,0,.2,0,.3,0,.1,0,.1-.2.1-.2,0,0,0-.1,0-.2,0,0-.2,0-.3,0Z" fill="#fff"/>
  <path d="M112.6,57.4h0c0,0-.2,0-.3,0-.3,0-.8-.1-1.2-.6-.2-.3-.4-.7-.5-1.1-.1-.4-.2-.9-.2-1.3,0-.5,0-.9,0-1.4v-12.2c0-2.6-.7-4.6-2-5.8-.7-.7-1.7-1.1-2.9-1.4h0s-1.1-.4-3.8-.4c-2.6,0-4,.8-4,.8,0,0,0,0,0,0-1.1.4-2,1-2.7,1.6-.8.7-1.3,1.5-1.7,2.3-.4.8-.5,1.6-.5,2.2s.3,1.5.9,2c.6.5,1.4.7,2.5.7.5,0,1-.2,1.4-.4.4-.3.7-.6.9-.9.2-.4.2-.8.1-1.3,0-.5-.4-1-.8-1.5-.8-.8-1.2-1.6-1.1-2.4,0-.7.4-1.3,1-1.8,0,0,.1,0,.2-.1,0,0,0,0,.1,0,.6-.4,2.1-.8,3.2-.8,3.8,0,4.1,1.6,4.3,2.2.2.7.3,1.5.2,2.4,0,.9,0,1.7,0,2.5v4.5h-.6c0,0,0,0,0,0-4.1-.5-8.5.1-8.5.1-.2,0-.4,0-.5.1h0s0,0,0,0c0,0,0,0-.3,0-1.3.3-2.5.7-3.5,1.2-1.1.6-1.9,1.3-2.6,2.2,0,0,0,0,0,0,0,0,0,0,0,0-1.2,1.7-1.8,4.9-3.4,6.6-1.7,1.7-4.5,2.6-7.6,1.6-3-1-3.3-5.7-3.5-7-.1-1.2-.2-2.4-.2-3.5v-2.4c0-.8,0-1.6.1-2.5,0-.9.2-1.9.4-3,.2-1,.5-2,1-2.9.3-.6.7-1.2,1.2-1.6.4-.3,1.5-.9,3.3-.9s3,.7,3.3,1.1c0,0,.1.1.1.2.6,1.2.9,2.6.9,4.3s-.4,3.1-1.3,4.1c-.8,1-1.8,1.7-2.9,2.2-1,.4-4,.9-4.9.9s-.3.1,0,.1c.9,0,3.9,0,4.9-.1,1.1-.1,2.2-.3,3.3-.6,1.1-.3,2.1-.7,2.9-1.2.8-.5,1.5-1.2,2.1-2.1.5-.9.8-2,.8-3.3s-.7-3-2.2-4.1c-1.2-.8-2.8-1.4-4.8-1.6-3-.3-4.6.2-4.6.2-.7.1-1.3.4-1.9.6-1.4.6-2.6,1.5-3.7,2.5-1,1.1-1.8,2.4-2.4,3.9-.6,1.5-.8,3.1-.8,4.8,0,1.8.3,3.6.7,5.1.4,1.6,1.1,3,2,4.2,2.7,3.1,5.8,3.6,8.8,3.6s5.9-1.5,7.9-3.7c0,0,0,.2.1.3.5.8,1.1,1.5,1.8,2,.7.5,1.5.9,2.4,1.2.9.3,1.8.4,2.6.4,1.6,0,2.5-.3,3.1-.4.5,0,.5-.2,0-.2-1.5,0-3.6-.3-4.5-1.2-.9-.9-1.3-2.4-1.3-4.4s.3-3.6,1.4-5c.9-1.1,3-1.9,4.8-1.9,2.8,0,5.9.5,5.9.5v11.9c0,0,0,.2.1.2.1,0,.2.1.3.1h6.3c.2,0,.2,0,.3,0,.1,0,.1-.1.1-.2,0,0,0-.1-.1-.2Z" fill="#fff"/>
  <path d="M37.1,57.3h0c-.6,0-1.6-.2-1.9-1.5-.2-.7-.3-1.5-.3-2.4v-27.7c0-.8.1-1.6.3-2.4.3-1.3,1.3-1.5,1.9-1.5s.2,0,.3,0c0,0,0-.1,0-.2s0,0-.1-.2c0,0-.1,0-.3,0h-8.5c-.2,0-.3,0-.3,0,0,0,0,.1,0,.2s0,.1,0,.2c0,0,.2,0,.3,0,.6,0,1,.2,1.4.5.3.3.5.7.6,1.1.1.4.2.9.2,1.3,0,.5,0,.9,0,1.4v13.6c-4.6-1.8-11.4-2.7-15.8-3v-11.1c0-.4,0-.8,0-1.2,0-.4.1-.8.3-1.2.2-.4.4-.7.6-1,.3-.3.8-.5,1.3-.5s.2,0,.3,0c0,0,0-.1,0-.2s0,0-.1-.2c0,0-.1,0-.3,0h-8.5c-.2,0-.2,0-.2,0,0,0-.1.1-.1.2,0,0,0,.2,0,.2,0,0,0,0,.2,0,.6,0,1,.2,1.4.6.3.3.4.7.6,1.1.1.4.2.9.2,1.3,0,.5,0,.9,0,3.9v8c-1.3,0-2.4.1-3.7.4,0,0,0,0,0,.1.9,0,3.8.2,7.8.9,6.8,1.3,12.2,4.3,14.4,7.3.9,1.6,1.1,2.7,1.3,4.5.1,1.1.2,1.6.1,2.8,0,0,0,.9,0,1.4,0,.5-.1.9-.2,1.3-.1.5-.3.9-.6,1.1-.3.4-.8.5-1.4.5s-.2,0-.3,0c0,0,0,.1,0,.2s0,.1,0,.2c0,0,0,0,.2,0h8.5c.2,0,.3,0,.3,0,0,0,0-.1,0-.2s0-.1,0-.2c0,0-.2,0-.3,0Z" fill="#fff"/>
  <path d="M17.3,57.4h0c-.6,0-1.6-.2-1.9-1.5-.2-.7-.3-1.5-.3-2.4v-13.1c0-.3-.1-.5-.3-.7-1.1-1-3.2-1.2-3.7-1.3,0,0,0,0,0,0v16.8c0-2,0-1.6,0-1.1,0,.5-.1.9-.2,1.3-.1.5-.3.8-.6,1.1-.3.4-.8.6-1.4.6s-.2,0-.3,0c0,0,0,.1,0,.2s0,0,0,.2c0,0,0,0,.3,0h8.5c.2,0,.3,0,.3,0,.1,0,.1-.1.1-.2,0,0,0,0,0-.2,0,0-.2,0-.3,0Z" fill="#fff"/>
</svg>