<?xml version="1.0" encoding="UTF-8"?>
<svg id="Calque_1" xmlns="http://www.w3.org/2000/svg" version="1.1" viewBox="0 0 120 77.8">
  <!-- Generator: Adobe Illustrator 29.7.1, SVG Export Plug-In . SVG Version: 2.1.1 Build 8)  -->
  <polygon points="75.8 38.6 75.8 18.7 87.9 18.7 87.9 59.1 77 59.1 60.1 37.7 60 37.7 60 59.1 47.7 59.1 47.7 18.7 60 18.7 75.6 38.6 75.8 38.6" fill="#fff"/>
  <polygon points="93.2 18.7 105.6 18.7 93.2 31 93.2 18.7" fill="#fff"/>
  <polygon points="93.2 35.8 105.6 23.4 105.6 59.1 93.2 59.1 93.2 35.8" fill="#fff"/>
  <path d="M34.9,37.7c4.7,1.1,8.4,4.6,8.4,10.1s-5.9,11.3-15.2,11.3H7.2V18.7h20.5c7.1,0,13.4,2.7,13.4,10.6s-3.2,7.1-6.2,8.2h0ZM24.3,34.4c2.8,0,4.4-1.2,4.4-3.2s-1.2-3.3-4.1-3.3h-4.9v6.5h4.6ZM26.4,49.8c2.9,0,4.6-1,4.6-3.2s-1.5-3.1-4.9-3.1h-6.4v6.3h6.7Z" fill="#fff"/>
  <path d="M108.7,57.5c.1.3.2.5.4.6.2.2.4.3.6.4.2.1.5.2.7.2s.5,0,.7-.2c.2-.1.4-.3.6-.4.2-.2.3-.4.4-.6s.2-.5.2-.8,0-.5-.2-.8-.2-.5-.4-.6-.4-.3-.6-.4c-.2-.1-.5-.2-.7-.2s-.5,0-.7.2c-.2.1-.4.2-.6.4-.2.2-.3.4-.4.6s-.2.5-.2.8,0,.5.2.8M108.4,55.9c.1-.3.3-.5.5-.7.2-.2.5-.4.7-.5.3-.1.6-.2.9-.2s.6,0,.9.2.5.3.7.5c.2.2.4.5.5.7.1.3.2.6.2.9s0,.6-.2.9c-.1.3-.3.5-.5.7-.2.2-.5.4-.7.5-.3.1-.6.2-.9.2s-.6,0-.9-.2c-.3-.1-.5-.3-.7-.5-.2-.2-.4-.5-.5-.7-.1-.3-.2-.6-.2-.9,0-.3,0-.6.2-.9" fill="#fff"/>
  <path d="M110.4,56.7h-.4v-.8h.6c0,0,.2,0,.2,0,0,0,.1,0,.2,0,0,0,.1,0,.1.1s0,.1,0,.2,0,.2,0,.3c0,0-.1.1-.2.1,0,0-.2,0-.2,0-.1,0-.2,0-.3,0M110.8,56.9c.2,0,.4,0,.5-.2.1-.1.2-.3.2-.5s0-.4-.2-.6-.4-.2-.7-.2h-1v2.6h.4v-1.1h.4l.7,1.1h.4l-.8-1.1Z" fill="#fff"/>
</svg>